<svg width="28" height="27" viewBox="0 0 28 27" fill="none" xmlns="http://www.w3.org/2000/svg">
<path d="M26.9875 6.175L25.4625 14.5375C25.3367 15.2283 24.9726 15.8531 24.4335 16.3031C23.8945 16.753 23.2147 16.9997 22.5125 17H8.0125L8.5625 20H22C22.5933 20 23.1734 20.1759 23.6667 20.5056C24.1601 20.8352 24.5446 21.3038 24.7716 21.8519C24.9987 22.4001 25.0581 23.0033 24.9424 23.5853C24.8266 24.1672 24.5409 24.7018 24.1213 25.1213C23.7018 25.5409 23.1672 25.8266 22.5853 25.9424C22.0033 26.0581 21.4001 25.9987 20.852 25.7716C20.3038 25.5446 19.8352 25.1601 19.5056 24.6667C19.1759 24.1734 19 23.5933 19 23C19.0001 22.6591 19.0593 22.3207 19.175 22H11.825C11.9407 22.3207 11.9999 22.6591 12 23C12.0009 23.484 11.8847 23.9611 11.6612 24.3905C11.4378 24.8198 11.1138 25.1888 10.7169 25.4658C10.3199 25.7428 9.86186 25.9196 9.38177 25.9812C8.90167 26.0428 8.4138 25.9873 7.9598 25.8195C7.5058 25.6517 7.09915 25.3765 6.77456 25.0174C6.44996 24.6583 6.21707 24.2261 6.09576 23.7575C5.97445 23.2889 5.96831 22.7979 6.07789 22.3265C6.18746 21.855 6.40948 21.4171 6.725 21.05L3.2625 2H1C0.734784 2 0.48043 1.89464 0.292893 1.70711C0.105357 1.51957 0 1.26522 0 1C0 0.734784 0.105357 0.48043 0.292893 0.292893C0.48043 0.105357 0.734784 0 1 0H3.2625C3.7293 0.00102112 4.18104 0.165292 4.53946 0.464355C4.89787 0.763417 5.14039 1.17843 5.225 1.6375L5.8375 5H26C26.146 5.0003 26.2901 5.03297 26.4219 5.09565C26.5538 5.15834 26.6701 5.24947 26.7625 5.3625C26.8592 5.47198 26.9297 5.60203 26.9687 5.7428C27.0077 5.88358 27.0141 6.03137 26.9875 6.175Z" fill="#574F4D"/>
</svg>
