<svg width="22" height="28" viewBox="0 0 22 28" fill="none" xmlns="http://www.w3.org/2000/svg">
<path d="M11 0C8.08363 0.00330842 5.28766 1.1633 3.22548 3.22548C1.1633 5.28766 0.00330842 8.08363 0 11C0 20.4125 10 27.525 10.425 27.825C10.5953 27.9384 10.7954 27.9989 11 27.9989C11.2046 27.9989 11.4047 27.9384 11.575 27.825C12 27.525 22 20.4125 22 11C21.9967 8.08363 20.8367 5.28766 18.7745 3.22548C16.7123 1.1633 13.9164 0.00330842 11 0ZM11 7C11.7911 7 12.5645 7.2346 13.2223 7.67412C13.8801 8.11365 14.3928 8.73836 14.6955 9.46927C14.9983 10.2002 15.0775 11.0044 14.9231 11.7804C14.7688 12.5563 14.3878 13.269 13.8284 13.8284C13.269 14.3878 12.5563 14.7688 11.7804 14.9231C11.0044 15.0775 10.2002 14.9983 9.46927 14.6955C8.73836 14.3928 8.11365 13.8801 7.67412 13.2223C7.2346 12.5645 7 11.7911 7 11C7 9.93913 7.42143 8.92172 8.17157 8.17157C8.92172 7.42143 9.93913 7 11 7Z" fill="#574F4D"/>
</svg>
